<svg id="Layer_1" data-name="Layer 1" xmlns="http://www.w3.org/2000/svg" viewBox="0 0 127 117"><defs><style>.cls-1{fill:none;stroke:#bbb;stroke-linecap:round;stroke-linejoin:round;stroke-width:3.17px;}</style></defs><title>Icons</title><path class="cls-1" d="M17,86.45,12.1,110.64l28.82-7.27s4.77-1.45.75-5.49L23.12,79.22a5.71,5.71,0,0,1,0-8L86.64,8A5.72,5.72,0,0,1,94.7,8l18.55,18.66a5.71,5.71,0,0,1,0,8.05l-5.58,5.56a5.71,5.71,0,0,1-8.06,0l-6-6.05-3.72-3.74a4.91,4.91,0,1,0-7,6.92l3.72,3.74,6,6.06a5.72,5.72,0,0,1,0,8.06l-6.22,6.19L53.67,94"/></svg>