<svg id="Layer_1" data-name="Layer 1" xmlns="http://www.w3.org/2000/svg" viewBox="0 0 249.22 35.54"><defs><style>.cls-1{fill:#231f20;}</style></defs><path class="cls-1" d="M.42,3.5H22.05V8.45H6.11v7.39H20.55v4.9H6.11v7.8H22v5H.42Z"/><path class="cls-1" d="M32.69,33.49H27.3V1.4h5.39Z"/><path class="cls-1" d="M36.79,26.54l4.85-1c.75,2.85,2.4,4.65,6.19,4.65,2.85,0,4.35-1,4.35-3s-1.3-2.75-6-3.6c-6.24-1.25-8.44-3.35-8.44-7.25,0-4.24,3.1-6.94,9.34-6.94,6.45,0,8.65,2.65,9.6,6.79l-4.85,1c-.65-2.89-2.05-4-4.85-4S42.89,14.3,42.89,16s1,2.8,5.44,3.6c7,1.3,9.05,3.65,9.05,7.35,0,4.35-2.9,7.14-9.65,7.14C40.14,34.13,37.64,31,36.79,26.54Z"/><path class="cls-1" d="M75.87,27.89h-.55c-1.2,3.8-3.9,6.09-8,6.09s-7.15-2-7.15-6.59c0-4.2,2.55-7.25,8.5-7.25h7v-1.6c0-3-1.25-4.79-4.55-4.79-2.75,0-4.35,1.4-4.95,4.14L61,16.74c.9-4.44,4.25-7.29,10.25-7.29,6.79,0,9.69,3.2,9.69,9v15H75.87Zm-.25-3.25v-.95h-6.1c-2.7,0-4.25,1-4.25,2.95,0,1.7,1,3.15,4.1,3.15C73.12,29.79,75.62,27.59,75.62,24.64Z"/><path class="cls-1" d="M97.86,3.5h12.59c7.2,0,10.45,2.55,10.45,7.65,0,3.9-2.25,6.09-6.05,7v.5c5.2.55,7.39,2.45,7.39,6.7,0,4.85-3,8.15-10.64,8.15H97.86ZM103.56,8v8.64h6.74c3.15,0,5.15-1.19,5.15-4.44,0-2.85-1.4-4.2-4.9-4.2Zm0,12.64v8.6h7.89c3.55,0,5.2-1.75,5.2-4.3,0-2.75-1.4-4.3-5.5-4.3Z"/><path class="cls-1" d="M124.94,22c0-7.94,4.5-12.64,11.84-12.64,7.1,0,10.55,4.3,10.55,10.74,0,.9,0,1.95-.1,3.15H130.29c.4,4.25,2.55,6.4,6.54,6.4,3.75,0,5-1.8,5.7-4.05l4.6,1.3c-1.1,4.25-4,7.14-10.35,7.14C129.59,34.08,124.94,29.89,124.94,22Zm5.4-2.35h12c-.2-4.05-2-6.14-5.75-6.14S130.84,15.49,130.34,19.69Z"/><path class="cls-1" d="M157,33.49h-5.35V10h5.25v6.19h.45c1.3-4.34,4.3-6.79,8.24-6.79,4.9,0,7.25,3.3,7.25,8.39v15.7h-5.35V19.19c0-2.85-1.25-4.94-4.49-4.94a5.65,5.65,0,0,0-6,5.94Z"/><path class="cls-1" d="M176.85,21.69c0-7.74,4.65-12.29,12-12.29S200.64,14,200.64,21.69s-4.4,12.44-11.84,12.44S176.85,29.39,176.85,21.69Zm5.4-.05c0,4.85,2,7.85,6.5,7.85s6.54-3,6.54-7.85S193.1,14,188.75,14,182.25,16.79,182.25,21.64Z"/><path class="cls-1" d="M210.43,33.49H205V1.4h5.39Z"/><path class="cls-1" d="M231.92,27.29h-.35c-1.2,4.05-4,6.84-8.2,6.84-5.39,0-8.54-4.34-8.54-12.29S218,9.35,223.52,9.4c4.25-.05,6.85,2.65,8,6.74h.35V1.4h5.35V33.49h-5.35Zm0-4.5V21c0-4-2.35-6.74-6-6.74-3.9,0-5.79,2.44-5.79,7.59s1.79,7.5,5.79,7.5C229.52,29.34,231.92,26.79,231.92,22.79Z"/><path class="cls-1" d="M243,6V1.65h5.85V6Zm.2,27.49V10h5.4V33.49Z"/></svg>