<svg id="Layer_1" data-name="Layer 1" xmlns="http://www.w3.org/2000/svg" viewBox="0 0 127 117"><defs><style>.cls-1{fill:none;stroke:#bbb;stroke-linecap:round;stroke-linejoin:round;stroke-width:3.17px;}</style></defs><path class="cls-1" d="M54.94,23.86H45.58S35.84,13,29.66,12.82V27.61S17.31,32.85,12.82,51.19H8.88s-5.8-.37-5.8,4.87V68.51s-.07,5,5.43,5h5.62s6.73,13.67,19.09,18l9,14.79S44,109,45.39,109c1.59,0,3.18-2.62,3.18-2.62l7.11-10.86h26l7.11,10.86S90.39,109,92,109c1.4,0,3.18-2.81,3.18-2.81l9-14.79s18.78-8.77,19.72-28.55c.49-10.09-2.78-20.82-10.14-28.09-9-8.88-19.47-12-30.59-12.14a27.71,27.71,0,0,0-7.85.92c-7.54,2.06-9.68,7.72-9.68,7.72s-3.69,9.82,4.49,14.88c9,5.57,16.68-.6,20.44-10C95.28,24.22,93.29,8,93.29,8"/></svg>