<svg version="1.1"
  xmlns="http://www.w3.org/2000/svg"
  xmlns:xlink="http://www.w3.org/1999/xlink" x="0px" y="0px" viewBox="0 0 923.37 806.04" style="enable-background:new 0 0 923.37 806.04;" xml:space="preserve">
  <defs>
    <linearGradient _ngcontent-serverApp-c27="" id="grad1" x1="0%" y1="0%" x2="50%" y2="100%">
      <stop _ngcontent-serverApp-c27="" offset="0%" stop-color="#f3f3f3">
        <animate _ngcontent-serverApp-c27="" attributeName="stop-color" values="#f3f3f3; #fff; #f1f1f1; #f3f3f3" dur="5s" repeatCount="indefinite"></animate>
      </stop>
      <stop _ngcontent-serverApp-c27="" offset="70%" stop-color="#fff">
        <animate _ngcontent-serverApp-c27="" attributeName="stop-color" values="#fff; #f1f1f1; #ebebeb;#fff" dur="5s" repeatCount="indefinite"></animate>
      </stop>
      <stop _ngcontent-serverApp-c27="" offset="100%" stop-color="#fff">
        <animate _ngcontent-serverApp-c27="" attributeName="stop-color" values="#fff" dur="10s" repeatCount="indefinite"></animate>
      </stop>
    </linearGradient>
  </defs>
  <g id="Layer_2">
  </g>
  <g id="Layer_1">
    <path d="M737.9,372.3l-7.9,5.8c-0.1-3.4-0.6-8.1-0.6-8.1c-4.6-24.3-22.1-43.3-51.7-48.8c-24.5-4.5-39.1-0.1-56.7,7.2
	c-4,2.3-8.3,4.1-11,5.8c-1.4,0.9-2.9,1.8-4.3,2.8l-4.1,2.7l10.1-15.2c11.1-16.5,20.5-32.9,28.1-49l0,0
	c36.6-76.2,38.6-127.8,38.6-127.8l0,0c1.4-16,0-28.4-4.3-37.3c-3.1-6.8-9-11.9-16.3-14.1c-17.4-5.4-35.4,8.9-47.5,21.7
	c-14.6,15.6-28.5,38.5-40,61.9c-43.1,87.7-52,143.4-71.5,252.5l-0.1,1.2l-0.8,1c-71.8,85-157,166.4-157.5,166.8
	c-1.3,1.3-14.3,14-56.7,47.8c-17.6,14.1-36.7,26.1-56.7,35.5c-16.1,7.9-34,12.2-51.9,12.3c-18.2,0.2-35-6.7-43.3-17.9
	c-12-16-10.5-42.3-10.3-45c0-0.4,0.8-47,39.3-101.9c20.9-29.8,45.8-60.3,81-99l5.1-5.6l41.5-40c34.4-32.6,65.2-58.5,97.5-86.7
	c13.1-11.4,33.5-29.8,33.8-36.5c0-0.3,0-0.4,0-0.5c-2.5-0.9-12.3,4.5-16.1,6.5c-1.5,0.8-3,1.6-4.5,2.3c-0.8,0.4-1.5,0.8-2.2,1.2
	c-1.1,0.5-2.8,1.5-5.7,3.1c-0.5,0.3-46.1,25-68.7,16.3c-4.7-1.7-8.2-5.9-9-10.9c-3.9-17.8,19.2-55.7,43.2-80
	c23-23.3,91.2-81.8,129.7-72.4c4.1,1.1,7.4,3.9,9,7.8c1.9,4.7,1.7,10.2-0.7,16.5c-0.5,1.6-1.2,3.2-2,4.7c1.9-1,4.1-3.7,4.9-5.4
	c3.7-7.9,4.8-15.3,3-20.9c-1.4-4.6-5.3-8.1-11.5-10.5c-22.6-8.7-72.5,16.8-91.7,32.2l-1.3,1c-21.4,17.2-76,60.8-93.9,107.7
	c-5,13.2-3.6,24.5,4.1,32.7c11.4,12,32.2,10.9,43.6,9.2c6.9-1.5,13.6-3.7,19.9-6.5l6.7-3L352,316.3c-6.9,5.7-67.9,56.6-108.5,99.2
	l-2.8,3c-41.2,43.3-71,74.6-100.5,123.4c-24.9,41.1-35.3,78.1-31.1,110c1.8,13.5,7.3,32.1,23.3,43.8c16,11.7,39.4,15,69.7,9.7
	c30.3-5.2,67.8-26.6,111.5-63.8c33.9-28.7,61.3-58.1,74.4-72.2l2-2.2c0.9-1,1.7-1.9,2.5-2.6l0.2-0.2c0.4-0.4,45.1-46,91.8-100.7
	l11.3-13.7l-2.5,17.8c0,0.1,0,0.3-0.1,0.9c-1.6,11.6-4.6,35.9-7.3,67.7l-0.2,2.2l-2.7,2.3c-14.1,9.9-22.8,16.4-27.5,20.5
	c-20,17.3-43.2,40.4-39.8,52.6c0.7,2.5,3.9,6.7,8.9,8.1c6.7,1.9,27.8,2,51.7-4l2-0.5l4.2-1.4l0.2,3.3c0,1.4,0.1,2.7,0.1,4.1
	c0,2.5,0.1,5.1,0.2,8.3l0.2,6.6c0.8,23.4,5.2,53,14.8,66.7c-4.6-13.3-6.3-45.1-4.7-89.2l0.1-3.5l3.2-1.1c22.8-7.9,44.8-18,65.6-30
	c19.8-11.5,120.7-73.5,160.8-166.2c3.8-8.5,6.3-17.7,7.4-27.2l0.2-2.2l1.7-1.4c33.2-25.1,57.8-45.8,73.2-61.9
	C788.7,336.1,765.9,352.8,737.9,372.3z M485.2,564.5c-0.2,3.2-0.4,6-0.5,8.6c-0.1,2.4-0.3,4.6-0.4,6.8l0,0.1
	c-0.3,4.3-0.5,8.4-0.8,13.2c-0.2,3-0.4,6.2-0.6,9.9l0,0l-0.4,4.8l-3.5,1c-10.1,3.1-20.7,4.8-31.5,5.1c-8.1,0-12.9-0.9-15.1-2.7
	c-2.7-2.4-1.9-6.7-0.9-8.4c0.1-0.1,0.2-0.3,0.3-0.5c1.7-3.3,6.1-12,43.8-40.4l10-6.9L485.2,564.5z M515.8,407.6
	c19.3-122.4,36.4-160.6,52.9-197.4l0.7-1.7c2.9-6.5,13.3-29.4,26.8-51.5c16.8-27.5,31.7-43.2,44.4-46.8c5.7-1.8,11.9-0.8,16.8,2.6
	c15,10.5,11.5,41.9,6,66.4c-6.2,27.3-17,56.7-24.5,72.4l-1.3,2.8c-13.1,28-40,85.1-112.8,156.3l-10.9,10.6L515.8,407.6z
	 M719.9,394.5c-0.4,1.8-1.2,4.2-2,6.4l-3.4,9c-3.8,9.7-8.6,19-14.2,27.7c-41.1,66.3-98.3,116.4-174.7,153.1l0,0
	c-8.2,4-16.4,7.6-24.4,10.7l-7.3,2.9l0.4-7.8c0.8-15.4,2-31.7,3.6-48.4l0.2-2.4l1.9-1.4c18-12.7,35.2-24.3,51.2-34.5
	C613.6,469.3,666,433.7,706.8,404L719.9,394.5L719.9,394.5z M720.5,385.1l-2.2,1.5c-46.8,31.9-94.9,62.7-126.7,83.1l-19.7,12.6
	c-25,16.1-48.1,31.4-63.1,41.5l-9,6.2l1.1-10.8c2.1-19.8,4.8-42.1,8.2-66.2c0.4-3,0.8-5.9,1.3-8.9c0.3-2.2,0.6-4.3,0.9-6.4l0.3-1.9
	l1.5-1.2c20.3-19.2,35.1-35.4,54.1-53.2l0.2-0.2c43.3-42.3,60.4-47.7,77.2-51l2.3-0.4c8.7-1.7,37.3-2.3,57.2,14.2
	c10.6,8.9,16.4,24.2,16.4,38.5V385.1z"/>
  </g>
</svg>
