<svg version="1.1"
  xmlns="http://www.w3.org/2000/svg"
  xmlns:xlink="http://www.w3.org/1999/xlink" x="0px" y="0px" viewBox="0 0 923.37 806.04" style="enable-background:new 0 0 923.37 806.04;" xml:space="preserve">
  <!-- <defs>
    <linearGradient id="grad1" x1="0%" y1="0%" x2="0%" y2="100%">
      <stop offset="0%" style="stop-color:rgb(232,232,232);stop-opacity:1" />
      <stop offset="100%" style="stop-color:rgb(186,186,186);stop-opacity:1" />
      <animate attributeName="fy" dur="700ms" from="100%" to="0%" repeatCount="indefinite" />
    </linearGradient>
  </defs> -->
  <defs>
    <linearGradient id="grad1" x1="0%" y1="0%" x2="50%" y2="100%">

      <!-- <stop offset="0%" stop-color="#bababa">
                <animate attributeName="stop-color" values="#bababa; #dad8d8; #ebe7e7;" dur="4s" repeatCount="indefinite"></animate>
            </stop>

            <stop offset="100%" stop-color="#ebe7e7">
                <animate attributeName="stop-color" values="#ebe7e7; #dad8d8;$elsa-gray" dur="4s" repeatCount="indefinite"></animate>
            </stop> -->

      <stop offset="0%" stop-color="#f3f3f3">
        <animate attributeName="stop-color" values="#f3f3f3; #ececec; #d9d9d9; #f3f3f3" dur="12s" repeatCount="indefinite"></animate>
      </stop>

      <stop offset="100%" stop-color="#ececec">
        <animate attributeName="stop-color" values="#ececec; #d9d9d9;#f3f3f3; #d9d9d9;#ececec" dur="12s" repeatCount="indefinite"></animate>
      </stop>


    </linearGradient>
  </defs>
  <g id="Layer_2">
  </g>
  <g id="Layer_1">
    <path d="M603.7,338.5l8.8-13.3c15.4-22.9,27.5-45.6,36-67.5c29.3-75.6,37.9-123.9,26.4-147.6c-3.2-7.1-9.4-12.4-16.9-14.6
		c-17.8-5.5-36.2,8.9-48.5,22c-14.5,15.5-29.2,38.1-40.2,62.2c-41,89.1-57.1,145.3-71.6,252.8l-0.1,1l-0.6,0.8
		c-71.6,84.7-152.8,164.1-153.5,164.7c-2.3,2.3-16,15.4-56.7,47.8c-17.4,14-36.3,25.9-56.5,35.4c-16,7.9-33.6,12.1-51.5,12.2
		c-17.8,0.2-32.5-5.8-42.5-17.5c-15.2-17.7-12.4-42.6-12.3-43.6c0-0.4,3.1-47.4,41.4-102.1c21-30,46-60.5,80.9-98.9l5.1-5.6l41.5-40
		c33-31.3,63.1-59,97.4-86.6c13.3-10.1,30-28.1,30.3-35.3c0-1-0.2-1.2-0.3-1.3c-2.5-1.6-11.1,3-17.3,6.4c-2.2,1.2-4.6,2.4-6.7,3.5
		c-1.2,0.6-3.2,1.7-5.7,3.1c-12.6,6.9-49.3,23.4-67.9,16.2c-4.4-1.6-7.6-5.5-8.4-10.1c-3.8-17.5,19.1-55,42.9-79.1
		c22.9-23.2,90.8-81.4,128.8-72.1c3.8,1,6.8,3.6,8.3,7.2c1.8,4.4,1.6,9.7-0.7,15.8l0,0c-0.5,1.7-1.2,3.3-2.2,4.9
		c-0.3,0.5-0.4,1-0.5,1.5c2.7,0.4,6.5-4.4,7.4-6.3c3.8-8.1,4.9-15.8,3-21.6c-1.5-4.9-5.6-8.6-12.1-11.1c-23-8.8-73.3,16.8-92.7,32.4
		l-1.3,1c-21.4,17.2-78.4,63-96.4,110.2c-5.6,14.7-3.1,25.9,4.3,33.7c11.8,12.4,33.2,11.2,44.5,9.5c6.9-1.5,13.7-3.7,20.2-6.6
		l-16.4,13.5c-0.6,0.5-66.1,54.7-108.6,99.3l-2,2.1c-41.6,43.7-71.7,75.2-101.5,124.4c-25,41.3-35.5,78.6-31.2,110.7
		c1.8,13.7,7.4,32.6,23.7,44.5c16.1,11.8,39.9,15.2,70.5,9.9c30.4-5.2,68.1-26.7,112-64c35.1-29.7,63.6-60.6,75.8-73.7
		c1.3-1.4,2.3-2.5,3.2-3.4l0.2-0.2c0.4-0.4,45.5-46.4,91.9-100.8l9.1-11l-2,14.3c0,0.2-4,27.9-7.4,68.6l-0.2,1.8l-2.4,2
		c-13.4,9.4-22.6,16.2-27.5,20.5c-42,36.2-41.4,48.9-40.1,53.6c0.8,2.9,4.3,7.3,9.6,8.8c7.3,2.1,28.7,1.9,52.2-4l2-0.5l3-1l0.1,2
		c0.1,4,0.1,7.5,0.3,12.4l0.2,6.6c0.9,26.9,6.5,62.1,19.7,72.4c0.2,0.1,0.3,0.3,0.5,0.4c-0.6-0.7-1.1-1.4-1.5-2.2
		c-6-9.1-8.4-43.9-6.6-93.1l0.1-2.8l2.6-0.9c22.8-7.9,44.9-18,65.8-30.1c28.1-16.3,122.7-77.7,161.2-166.7c3.9-8.7,6.4-18,7.5-27.5
		l0.2-1.8l1.4-1.1c40.4-30.5,68-54.6,82.1-71.7c-18.2,15.3-44.4,34.8-78,58.2l-5.1,3.6l-1.2-6.1c-4.7-24.7-25.2-42.1-54.6-46.5
		c-30.6-4.6-52.6,3.8-60.2,7.7C612.2,333.2,607.9,335.7,603.7,338.5z M481.9,603.2l-0.3,4.1l-2.8,0.8c-10.1,3.1-20.7,4.8-31.3,5.1
		c-6.7,0-12.2-0.6-14.4-2.5c-2.2-1.9-1.6-5.6-0.7-7.1c1.4-2.5,3.5-10.3,43.8-40.6l8.3-5.7l-0.3,7.2c-0.4,6.2-0.6,10.9-0.9,15.4
		l0,0.2C482.8,587,482.5,593.4,481.9,603.2z M516.8,407.8C536,286,553,247.7,569.6,210.6l0.7-1.7c6.6-14.9,41.1-89.4,70.5-97.7
		c5.4-1.7,11.3-0.8,15.9,2.5c14.5,10.1,11.1,41.1,5.6,65.4c-6.1,27-16.9,56.4-24.4,72.2l-1.3,2.8c-13.1,27.9-40.3,85.9-113.1,157.1
		l-8.7,8.5L516.8,407.8z M501.9,519.4c2.2-20.9,5-43.2,8.2-66.2c0.7-5.2,1.5-10.3,2.2-15.3l0.2-1.5l1.2-1
		c19.2-16.6,37.3-34.4,54.2-53.3l0.2-0.2c43.1-42.2,57.5-44.9,74.2-48.1l2.2-0.4c8.6-1.7,39.9-1.2,59.4,15
		c10.4,8.7,15.6,20.1,15.6,34.1l0,2.1l-1.8,1.2c-50,34.1-101.9,67.2-132.8,87l-3.8,2.4l-9.8,6.3c-21.8,14-44.2,28.8-63.1,41.5
		l-7.2,5L501.9,519.4z M525.2,589.7c-8.3,4-16.5,7.6-24.3,10.7l-5.9,2.3l0.3-6.3c0.8-15.1,2-31.4,3.6-48.4l0.2-1.9l1.5-1.1
		c15.9-11.2,33.5-23.2,51.1-34.5c61.6-39.8,114-75.3,155.7-105.7l11-8l-4.8,12.7c-3.8,9.6-8.5,18.8-14.1,27.5
		C658.4,503.3,601.3,553.2,525.2,589.7z"/>
  </g>
</svg>
