<?xml version="1.0" encoding="utf-8"?>
<!-- Generator: Adobe Illustrator 24.0.0, SVG Export Plug-In . SVG Version: 6.00 Build 0)  -->
<svg version="1.1" id="Layer_1" xmlns="http://www.w3.org/2000/svg" xmlns:xlink="http://www.w3.org/1999/xlink" x="0px" y="0px"
	 viewBox="0 0 29.25 29.25" style="enable-background:new 0 0 29.25 29.25;" xml:space="preserve">
<g>
	<path d="M14.62,3.29c3.69,0,4.13,0.01,5.59,0.08c1.35,0.06,2.08,0.29,2.57,0.48c0.65,0.25,1.11,0.55,1.59,1.03
		c0.48,0.48,0.78,0.94,1.03,1.59c0.19,0.49,0.41,1.22,0.48,2.57c0.07,1.46,0.08,1.89,0.08,5.59s-0.01,4.13-0.08,5.59
		c-0.06,1.35-0.29,2.08-0.48,2.57c-0.25,0.65-0.55,1.11-1.03,1.59c-0.48,0.48-0.94,0.78-1.59,1.03c-0.49,0.19-1.22,0.41-2.57,0.48
		c-1.46,0.07-1.89,0.08-5.59,0.08c-3.69,0-4.13-0.01-5.59-0.08c-1.35-0.06-2.08-0.29-2.57-0.48c-0.65-0.25-1.11-0.55-1.59-1.03
		c-0.48-0.48-0.78-0.94-1.03-1.59c-0.19-0.49-0.41-1.22-0.48-2.57c-0.07-1.46-0.08-1.89-0.08-5.59s0.01-4.13,0.08-5.59
		c0.06-1.35,0.29-2.08,0.48-2.57C4.1,5.83,4.4,5.37,4.88,4.88S5.83,4.1,6.47,3.85c0.49-0.19,1.22-0.41,2.57-0.48
		C10.5,3.31,10.93,3.29,14.62,3.29 M14.62,0.8c-3.75,0-4.22,0.02-5.7,0.08c-1.47,0.07-2.48,0.3-3.36,0.64
		C4.66,1.88,3.89,2.35,3.12,3.12S1.88,4.66,1.53,5.57C1.19,6.45,0.95,7.45,0.89,8.93c-0.07,1.47-0.08,1.94-0.08,5.7
		s0.02,4.22,0.08,5.7c0.07,1.47,0.3,2.48,0.64,3.36c0.35,0.91,0.83,1.68,1.59,2.45s1.54,1.24,2.45,1.59
		c0.88,0.34,1.88,0.58,3.36,0.64c1.47,0.07,1.94,0.08,5.7,0.08s4.22-0.02,5.7-0.08c1.47-0.07,2.48-0.3,3.36-0.64
		c0.91-0.35,1.68-0.83,2.45-1.59c0.77-0.77,1.24-1.54,1.59-2.45c0.34-0.88,0.58-1.88,0.64-3.36c0.07-1.47,0.08-1.94,0.08-5.7
		s-0.02-4.22-0.08-5.7c-0.07-1.47-0.3-2.48-0.64-3.36c-0.35-0.91-0.83-1.68-1.59-2.45c-0.77-0.77-1.54-1.24-2.45-1.59
		c-0.88-0.34-1.88-0.58-3.36-0.64C18.85,0.82,18.38,0.8,14.62,0.8L14.62,0.8z"/>
	<path d="M14.62,7.53c-3.92,0-7.1,3.18-7.1,7.1s3.18,7.1,7.1,7.1c3.92,0,7.1-3.18,7.1-7.1S18.54,7.53,14.62,7.53z M14.62,19.23
		c-2.54,0-4.61-2.06-4.61-4.61c0-2.54,2.06-4.61,4.61-4.61c2.54,0,4.61,2.06,4.61,4.61C19.23,17.17,17.17,19.23,14.62,19.23z"/>
	<circle cx="22" cy="7.25" r="1.66"/>
</g>
</svg>
