<?xml version="1.0" encoding="utf-8"?>
<!-- Generator: Adobe Illustrator 24.0.0, SVG Export Plug-In . SVG Version: 6.00 Build 0)  -->
<svg version="1.1" id="Layer_1" xmlns="http://www.w3.org/2000/svg" xmlns:xlink="http://www.w3.org/1999/xlink" x="0px" y="0px"
	 viewBox="0 0 29.25 29.25" style="enable-background:new 0 0 29.25 29.25;" xml:space="preserve">
<g id="Linkedin_11_">
	<path d="M1.26,9.99h5.73v18.43H1.26V9.99z M4.13,0.83c1.83,0,3.32,1.49,3.32,3.32c0,1.83-1.49,3.32-3.32,3.32
		c-1.84,0-3.32-1.49-3.32-3.32C0.8,2.32,2.29,0.83,4.13,0.83"/>
	<path d="M10.59,9.99h5.49v2.52h0.08c0.76-1.45,2.63-2.98,5.42-2.98c5.8,0,6.87,3.82,6.87,8.78v10.11h-5.73v-8.96
		c0-2.14-0.04-4.89-2.98-4.89c-2.98,0-3.44,2.33-3.44,4.73v9.12h-5.72V9.99z"/>
</g>
</svg>
